# WaveFront *.obj file (generated by CINEMA 4D)

mtllib ./server.mtl

v -2.63034439086914 -4.29601621627808 1.97969782352448
v -2.63034439086914 5.40267705917358 1.97969782352448
v 2.63034439086914 -4.29601621627808 1.97969782352448
v 2.63034439086914 5.40267705917358 1.97969782352448
v 2.63034439086914 -4.29601621627808 -1.97969782352448
v 2.63034439086914 5.40267705917358 -1.97969782352448
v -2.63034439086914 -4.29601621627808 -1.97969782352448
v -2.63034439086914 5.40267705917358 -1.97969782352448
# 8 vertices

vn 0 0 1
vn 1 0 0
vn 0 0 -1
vn -1 0 0
vn 0 1 0
vn 0 -1 0
# 6 normals

vt 0 0 0
vt 0 1 0
vt 1 1 0
vt 1 0 0
# 4 texture coordinates

o 服务器.2
usemtl 材质.9
f 3/4/1 4/3/1 2/2/1 1/1/1

usemtl 材质.10
f 5/4/2 6/3/2 4/2/2 3/1/2
f 7/4/3 8/3/3 6/2/3 5/1/3
f 1/4/4 2/3/4 8/2/4 7/1/4
f 4/4/5 6/3/5 8/2/5 2/1/5
f 5/4/6 3/3/6 1/2/6 7/1/6

